<?xml version="1.0" encoding="utf-8"?>
<!-- Generator: Adobe Illustrator 24.2.3, SVG Export Plug-In . SVG Version: 6.00 Build 0)  -->
<svg version="1.1" id="Calque_1" xmlns="http://www.w3.org/2000/svg" xmlns:xlink="http://www.w3.org/1999/xlink" x="0px" y="0px"
	 viewBox="0 0 240 39" style="enable-background:new 0 0 240 39;" xml:space="preserve">
<style type="text/css">
	.st0{fill:#FFFFFF;}
</style>
<g>
	<path class="st0" d="M43,76.4c-7.7,0-15.8,1.7-23.9,4c-1,0.2-2,0.9-2.6,1.7c-0.5,0.8-0.7,1.6-0.8,2.4c-0.8,4.4-0.7,8.8-0.5,13.6
		c0,1.1,0.2,2.4,0.7,3.2c0.5,0.8,1.5,1.3,2.6,1.5c1.4,0.2,2.8,0.4,4.2,0.5l-0.3,8.7c0,0.7,0.3,1.3,0.7,1.6c0.4,0.3,0.8,0.4,1.2,0.4
		c0.9,0.1,1.9-0.3,2.4-1.3c2.2-4.2,3.6-6.1,6.3-8.9c7.2,0.2,13.4-0.2,20.5-0.7c2.5-0.1,4.2-2.1,4.7-3.7c1.4-4.2,1.6-9.5,1.7-14.7
		c0.1-2.1-0.7-4.1-2-5.2c-1.2-1-2.7-1.3-4.1-1.7C50.1,76.9,46.3,76.4,43,76.4z M53.3,79.7c1.4,0.4,2.6,0.7,3.3,1.3
		c1.3,1.3,1.2,2.2,1.2,3.7c-0.1,5.1-0.4,10.1-1.5,13.9c-0.5,1.4-1.4,2.4-3,2.6c-7.2,0.5-13.5,0.9-20.7,0.7c-0.3,0-0.6,0.1-0.8,0.3
		c-3,3.1-4.6,5.2-6.9,9.7c-0.1,0.1-0.2,0.2-0.3,0.2c-0.1,0-0.1-0.1-0.1-0.1l0.3-9.4c0-0.5-0.4-1-0.9-1c-1.7-0.2-3.4-0.4-5.1-0.6
		c-0.7-0.1-1-0.3-1.2-0.6c-0.3-0.8-0.3-1.3-0.4-2.1c-0.2-4.8-0.2-8.9,0.5-13.1c0.1-0.6,0.3-1.2,0.5-1.8c0.4-0.6,1-0.7,1.6-0.9
		c8-2.2,15.7-3.8,23.1-3.8C46.5,78.5,50.3,78.9,53.3,79.7z M25.8,87.8c-1.1,1.3-1,3.1-0.1,4.3c0.4,0.6,1.1,1.1,2,1.2
		c1.1,0.1,1.8-0.4,2.5-0.9c1.4-1.2,1.5-3.2,0.5-4.7c-0.5-0.8-1.4-1.2-2.2-1.2C27.2,86.5,26.4,87,25.8,87.8L25.8,87.8z M37.7,86.7
		c-1.1,0-2,0.8-2.5,1.6c-0.6,0.9-1,2.1-0.5,3.2c1,2.2,4.3,2.2,5.6-0.1c0.6-1,0.5-2.2,0-3.1c-0.5-0.8-1.1-1.5-2.1-1.7
		C38,86.7,37.8,86.7,37.7,86.7z M47.3,86.9c-0.3,0-0.7,0-1,0.1c-1.3,0.3-2.4,1.7-2.3,3.4c0.1,0.9,0.5,1.7,1.2,2.3
		c0.7,0.6,1.8,0.8,2.9,0.6c1.3-0.3,2.1-1.3,2.3-2.3c0.3-1,0.2-2-0.4-2.8C49.4,87.4,48.4,86.9,47.3,86.9L47.3,86.9z M28.3,88.5
		c0.2,0,0.4,0.1,0.6,0.4c0.4,0.6,0.3,1.6-0.1,2c-0.4,0.4-0.7,0.4-0.9,0.4c-0.2,0-0.4-0.2-0.6-0.4c-0.3-0.5-0.4-1.3,0-1.8
		C27.6,88.8,28,88.6,28.3,88.5L28.3,88.5z M37.8,88.8c0,0,0.5,0.3,0.7,0.6c0.2,0.4,0.2,0.7,0,1.1c-0.6,1-1.8,0.7-2,0.3
		c-0.1-0.2,0-0.8,0.3-1.3C37.2,88.9,37.6,88.7,37.8,88.8L37.8,88.8z M48.4,89.5c0.1,0.1,0.2,0.6,0.1,1.1c-0.1,0.4-0.3,0.7-0.8,0.8
		c-0.6,0.1-0.9,0-1.2-0.2c-0.3-0.2-0.4-0.6-0.5-0.9c-0.1-0.9,0.2-1.1,0.8-1.3C47.4,88.8,48.1,89.1,48.4,89.5z"/>
	<path class="st0" d="M72.6,80.5c0-0.3,0.1-0.5,0.3-0.7c0.2-0.2,0.4-0.3,0.7-0.3h6.8c0.2,0,0.5,0.1,0.7,0.3c0.2,0.2,0.4,0.4,0.4,0.7
		v10.9H93V80.5c0-0.3,0.1-0.5,0.3-0.7c0.2-0.2,0.4-0.3,0.7-0.3h6.7c0.3,0,0.6,0.1,0.8,0.2c0.2,0.2,0.3,0.4,0.3,0.7v32.2
		c0,0.3-0.1,0.6-0.3,0.8c-0.2,0.2-0.5,0.3-0.8,0.3H94c-0.3,0-0.6-0.1-0.7-0.3c-0.2-0.2-0.3-0.4-0.3-0.8V99.5H81.5v13.1
		c0,0.3-0.1,0.6-0.3,0.7c-0.2,0.2-0.5,0.3-0.8,0.3h-6.8c-0.6,0-1-0.3-1-0.9C72.6,112.7,72.6,80.5,72.6,80.5z M135.5,113.2
		c-0.2,0.2-0.4,0.3-0.6,0.3c-0.2,0-0.4,0.1-0.6,0.1h-3.5c-0.3,0-0.5-0.1-0.7-0.2c-0.2-0.1-0.4-0.2-0.5-0.4c-0.1-0.2-0.3-0.4-0.3-0.6
		c-0.1-0.2-0.2-0.4-0.2-0.7l-0.7-2.9c-0.2,0.5-0.6,1-1,1.6c-0.5,0.6-1,1.2-1.7,1.7c-0.7,0.5-1.5,1-2.4,1.3c-0.9,0.4-2,0.5-3.2,0.5
		c-1.7,0-3.3-0.3-4.8-1c-1.4-0.7-2.6-1.6-3.6-2.8c-1-1.2-1.8-2.5-2.3-4.1c-0.6-1.6-0.8-3.2-0.8-5V86.2c0-0.6,0.1-1,0.4-1.3
		c0.3-0.3,0.7-0.4,1.2-0.4h5.3c0.7,0,1.1,0.1,1.4,0.3c0.2,0.2,0.4,0.7,0.4,1.3v15c0,0.7,0.2,1.3,0.4,1.9c0.3,0.6,0.7,1.1,1.2,1.6
		c0.5,0.5,1,0.8,1.7,1.1c0.6,0.3,1.3,0.4,1.9,0.4c0.6,0,1.1-0.1,1.7-0.4c0.6-0.3,1.1-0.6,1.6-1c0.5-0.4,0.9-1,1.2-1.5
		c0.3-0.6,0.5-1.2,0.5-1.9V86.1c0-0.3,0.1-0.5,0.2-0.8c0.1-0.3,0.2-0.5,0.4-0.6c0.2-0.1,0.4-0.2,0.6-0.3c0.2,0,0.4-0.1,0.6-0.1h5.2
		c0.7,0,1.1,0.2,1.4,0.5c0.3,0.3,0.4,0.8,0.4,1.3v25.7c0,0.3-0.1,0.6-0.2,0.8c-0.1,0.2-0.3,0.4-0.5,0.6
		C135.4,113.3,135.5,113.2,135.5,113.2z M162.2,110c-0.4,0.4-0.9,0.9-1.4,1.3c-0.5,0.5-1,0.9-1.6,1.3c-0.6,0.4-1.2,0.8-1.9,1
		c-0.7,0.3-1.5,0.4-2.2,0.4c-2.1,0-4-0.4-5.8-1.2c-1.7-0.8-3.3-1.8-4.5-3.2c-1.3-1.4-2.3-3-3-4.8c-0.7-1.8-1.1-3.8-1.1-5.9
		c0-2.1,0.4-4.1,1.1-5.9c0.7-1.8,1.7-3.4,3-4.8c1.3-1.4,2.8-2.5,4.5-3.2c1.8-0.8,3.7-1.2,5.8-1.2c0.8,0,1.6,0.1,2.3,0.4
		c0.7,0.2,1.3,0.5,1.9,0.9c0.6,0.4,1.1,0.8,1.6,1.3c0.5,0.5,0.9,1,1.4,1.4V77.5c0-0.5,0.1-0.9,0.4-1.2c0.3-0.3,0.7-0.5,1.3-0.5h5.2
		c0.2,0,0.4,0,0.6,0.1c0.2,0.1,0.4,0.2,0.6,0.4c0.2,0.2,0.3,0.3,0.4,0.6c0.1,0.2,0.2,0.5,0.2,0.7v34.4c0,1.2-0.6,1.8-1.9,1.8h-4.5
		c-0.3,0-0.5,0-0.7-0.1c-0.2-0.1-0.3-0.2-0.4-0.3c-0.1-0.2-0.2-0.4-0.3-0.6c-0.1-0.3-0.2-0.5-0.3-0.8L162.2,110L162.2,110z M149,99
		c0,1,0.2,1.9,0.5,2.8c0.3,0.9,0.8,1.6,1.3,2.3c0.6,0.6,1.3,1.2,2.1,1.5c0.8,0.4,1.7,0.6,2.7,0.6c1,0,1.9-0.2,2.8-0.5
		c0.8-0.3,1.6-0.8,2.3-1.5c0.6-0.6,1.2-1.4,1.6-2.2c0.4-0.8,0.6-1.7,0.7-2.7V99c0-1-0.2-1.9-0.6-2.8c-0.4-0.9-0.9-1.7-1.5-2.3
		c-0.7-0.7-1.4-1.2-2.3-1.6c-0.9-0.4-1.9-0.6-2.9-0.6c-1,0-1.9,0.2-2.7,0.6c-0.8,0.4-1.5,0.9-2.1,1.6c-0.6,0.7-1,1.5-1.3,2.3
		C149.1,97.1,149,98.1,149,99L149,99z M197.7,110c-0.4,0.4-0.9,0.9-1.4,1.3s-1,0.9-1.6,1.3c-0.6,0.4-1.2,0.8-1.9,1
		c-0.7,0.3-1.5,0.4-2.2,0.4c-2.1,0-4-0.4-5.8-1.2c-1.7-0.8-3.3-1.8-4.5-3.2c-1.3-1.4-2.3-3-3-4.8c-0.7-1.8-1.1-3.8-1.1-5.9
		c0-2.1,0.4-4.1,1.1-5.9c0.7-1.8,1.7-3.4,3-4.8c1.3-1.4,2.8-2.5,4.5-3.2c1.8-0.8,3.7-1.2,5.8-1.2c0.8,0,1.6,0.1,2.3,0.4
		c0.7,0.2,1.3,0.5,1.9,0.9c0.6,0.4,1.1,0.8,1.6,1.3c0.5,0.5,0.9,1,1.4,1.4V77.5c0-0.5,0.1-0.9,0.4-1.2c0.3-0.3,0.7-0.5,1.3-0.5h5.2
		c0.2,0,0.4,0,0.6,0.1c0.2,0.1,0.4,0.2,0.6,0.4c0.2,0.2,0.3,0.3,0.4,0.6c0.1,0.2,0.2,0.5,0.2,0.7v34.4c0,1.2-0.6,1.8-1.9,1.8h-4.5
		c-0.3,0-0.5,0-0.7-0.1c-0.2-0.1-0.3-0.2-0.4-0.3c-0.1-0.2-0.2-0.4-0.3-0.6c-0.1-0.3-0.2-0.5-0.3-0.8L197.7,110L197.7,110z
		 M184.5,99c0,1,0.2,1.9,0.5,2.8c0.3,0.9,0.8,1.6,1.3,2.3c0.6,0.6,1.3,1.2,2.1,1.5c0.8,0.4,1.7,0.6,2.7,0.6c1,0,1.9-0.2,2.8-0.5
		c0.8-0.3,1.6-0.8,2.3-1.5c0.6-0.6,1.2-1.4,1.6-2.2c0.4-0.8,0.6-1.7,0.7-2.7V99c0-1-0.2-1.9-0.6-2.8c-0.4-0.9-0.9-1.7-1.5-2.3
		c-0.7-0.7-1.4-1.2-2.3-1.6c-0.9-0.4-1.9-0.6-2.9-0.6c-1,0-1.9,0.2-2.7,0.6c-0.8,0.4-1.5,0.9-2.1,1.6c-0.6,0.7-1,1.5-1.3,2.3
		C184.6,97.1,184.5,98.1,184.5,99L184.5,99z M212.6,77.5c0-0.5,0.1-0.9,0.4-1.2c0.2-0.3,0.7-0.5,1.3-0.5h5.6c0.2,0,0.3,0,0.5,0.1
		c0.2,0.1,0.3,0.2,0.5,0.4c0.1,0.2,0.3,0.3,0.4,0.6c0.1,0.2,0.1,0.5,0.1,0.7v34.3c0,0.6-0.2,1-0.5,1.3c-0.3,0.3-0.8,0.4-1.3,0.4
		h-5.3c-0.6,0-1-0.2-1.3-0.4c-0.2-0.3-0.4-0.7-0.4-1.3V77.5z M251.3,110.1c-1.3,1.2-2.9,2.2-4.6,2.9c-1.7,0.7-3.5,1.1-5.4,1
		c-2.1,0-4.1-0.4-6-1.2c-1.8-0.7-3.5-1.8-4.9-3.2c-1.4-1.4-2.6-3-3.4-4.8c-0.8-1.8-1.2-3.8-1.2-6c0-1.3,0.2-2.7,0.5-3.9
		c0.3-1.2,0.8-2.4,1.4-3.6c0.6-1.1,1.3-2.1,2.2-3c0.9-0.9,1.8-1.7,2.9-2.4c1.1-0.7,2.3-1.2,3.5-1.5c1.3-0.4,2.6-0.6,4-0.6
		c1.3,0,2.5,0.2,3.7,0.5c1.2,0.3,2.3,0.8,3.4,1.4c1.1,0.6,2,1.3,2.9,2.2c0.9,0.8,1.6,1.8,2.3,2.8c0.6,1,1.1,2.1,1.5,3.3
		c0.3,1.2,0.5,2.3,0.5,3.6c0,0.8,0,1.4,0,2c0,0.5-0.1,0.9-0.4,1.2c-0.2,0.3-0.6,0.5-1.1,0.6c-0.5,0.1-1.2,0.2-2.2,0.2h-16.5
		c0.2,1,0.5,1.8,0.9,2.5c0.4,0.6,1,1.2,1.6,1.6c0.6,0.4,1.3,0.7,2,0.8c0.6,0.2,1.3,0.2,2,0.3c0.6,0,1.1-0.1,1.7-0.2
		c0.6-0.1,1.1-0.3,1.7-0.5c0.5-0.2,1-0.4,1.5-0.7c0.5-0.3,0.8-0.5,1.1-0.8c0.2-0.2,0.5-0.3,0.6-0.4c0.2-0.1,0.4-0.1,0.6-0.1
		c0.2,0,0.4,0.1,0.6,0.2c0.3,0.2,0.5,0.4,0.7,0.6l2.4,2.8c0.2,0.2,0.3,0.4,0.3,0.5c0,0.2,0.1,0.3,0.1,0.5c0,0.3-0.1,0.6-0.3,0.8
		C251.8,109.8,251.6,109.9,251.3,110.1L251.3,110.1z M240.3,91c-0.6,0-1.2,0.1-1.7,0.4c-0.6,0.2-1.1,0.6-1.6,1
		c-0.5,0.4-0.9,0.8-1.3,1.4c-0.4,0.5-0.7,1-1,1.5h11.7c-0.3-0.6-0.7-1.1-1-1.7c-0.4-0.5-0.8-0.9-1.3-1.3c-0.5-0.4-1.1-0.7-1.7-0.9
		C241.8,91.1,241.1,91,240.3,91z"/>
</g>
</svg>
