<?xml version="1.0" encoding="utf-8"?>
<!-- Generator: Adobe Illustrator 24.2.3, SVG Export Plug-In . SVG Version: 6.00 Build 0)  -->
<svg version="1.1" id="Calque_1" xmlns="http://www.w3.org/2000/svg" xmlns:xlink="http://www.w3.org/1999/xlink" x="0px" y="0px"
	 viewBox="0 0 100 100" style="enable-background:new 0 0 100 100;" xml:space="preserve">
<style type="text/css">
	.st0{fill:#FFFFFF;}
</style>
<g>
	<path class="st0" d="M12.3,0.3C9.1,0.3,5.8,1.1,2.4,2C2,2.1,1.6,2.4,1.3,2.7C1.1,3,1.1,3.4,1,3.7C0.7,5.5,0.7,7.3,0.8,9.3
		c0,0.5,0.1,1,0.3,1.3c0.2,0.3,0.6,0.5,1.1,0.6c0.6,0.1,1.2,0.2,1.8,0.2l-0.1,3.6c0,0.3,0.1,0.5,0.3,0.7c0.2,0.1,0.3,0.2,0.5,0.2
		c0.4,0,0.8-0.1,1-0.5c0.9-1.8,1.5-2.5,2.6-3.7c3,0.1,5.6-0.1,8.5-0.3c1,0,1.7-0.9,1.9-1.6c0.6-1.8,0.6-3.9,0.7-6.1
		c0-0.9-0.3-1.7-0.8-2.2C18,1.2,17.4,1,16.8,0.9C15.2,0.5,13.7,0.3,12.3,0.3z M16.6,1.7C17.1,1.9,17.6,2,18,2.3
		c0.5,0.6,0.5,0.9,0.5,1.5c-0.1,2.1-0.2,4.2-0.6,5.7c-0.2,0.6-0.6,1-1.2,1.1c-3,0.2-5.6,0.4-8.6,0.3c-0.1,0-0.2,0-0.3,0.1
		c-1.3,1.3-1.9,2.2-2.9,4c0,0-0.1,0.1-0.1,0.1c0,0-0.1,0-0.1-0.1l0.1-3.9c0-0.2-0.2-0.4-0.4-0.4c-0.7-0.1-1.4-0.2-2.1-0.3
		c-0.3,0-0.4-0.1-0.5-0.3C1.6,9.8,1.6,9.6,1.6,9.3c-0.1-2-0.1-3.7,0.2-5.4c0-0.3,0.1-0.5,0.2-0.7c0.2-0.3,0.4-0.3,0.7-0.4
		C6,1.9,9.3,1.2,12.3,1.2C13.8,1.2,15.3,1.4,16.6,1.7z M5.2,5.1C4.7,5.6,4.8,6.3,5.1,6.8C5.3,7.1,5.6,7.3,6,7.4c0.5,0,0.7-0.1,1-0.4
		c0.6-0.5,0.6-1.3,0.2-2C7,4.7,6.6,4.5,6.3,4.5C5.8,4.5,5.5,4.8,5.2,5.1L5.2,5.1z M10.1,4.6c-0.5,0-0.8,0.3-1,0.7
		C8.8,5.7,8.7,6.2,8.9,6.6c0.4,0.9,1.8,0.9,2.3,0c0.3-0.4,0.2-0.9,0-1.3C11,5,10.7,4.7,10.3,4.6C10.2,4.6,10.2,4.6,10.1,4.6z
		 M14.1,4.7c-0.1,0-0.3,0-0.4,0c-0.5,0.1-1,0.7-0.9,1.4c0,0.4,0.2,0.7,0.5,1c0.3,0.2,0.7,0.4,1.2,0.3c0.5-0.1,0.9-0.5,1-0.9
		c0.1-0.4,0.1-0.8-0.2-1.2C15,4.9,14.5,4.7,14.1,4.7L14.1,4.7z M6.2,5.4c0.1,0,0.2,0,0.3,0.2c0.2,0.3,0.1,0.7-0.1,0.8
		C6.3,6.5,6.1,6.5,6.1,6.5C6,6.5,5.9,6.5,5.8,6.3c-0.1-0.2-0.2-0.5,0-0.7C5.9,5.5,6.1,5.4,6.2,5.4L6.2,5.4z M10.2,5.5
		c0,0,0.2,0.1,0.3,0.3c0.1,0.2,0.1,0.3,0,0.4c-0.2,0.4-0.7,0.3-0.8,0.1c0-0.1,0-0.3,0.1-0.5C9.9,5.5,10.1,5.5,10.2,5.5L10.2,5.5z
		 M14.5,5.8c0,0,0.1,0.3,0,0.4c0,0.2-0.1,0.3-0.3,0.3c-0.2,0.1-0.4,0-0.5-0.1c-0.1-0.1-0.2-0.2-0.2-0.4c0-0.4,0.1-0.5,0.3-0.5
		C14.1,5.5,14.4,5.6,14.5,5.8z"/>
	<path class="st0" d="M24.6,2c0-0.1,0-0.2,0.1-0.3c0.1-0.1,0.2-0.1,0.3-0.1h2.8c0.1,0,0.2,0,0.3,0.1c0.1,0.1,0.2,0.2,0.2,0.3v4.5H33
		V2c0-0.1,0-0.2,0.1-0.3c0.1-0.1,0.2-0.1,0.3-0.1h2.8c0.1,0,0.2,0,0.3,0.1c0.1,0.1,0.1,0.2,0.1,0.3v13.3c0,0.1,0,0.2-0.1,0.3
		c-0.1,0.1-0.2,0.1-0.3,0.1h-2.8c-0.1,0-0.2,0-0.3-0.1c-0.1-0.1-0.1-0.2-0.1-0.3V9.9h-4.7v5.4c0,0.1,0,0.2-0.1,0.3
		c-0.1,0.1-0.2,0.1-0.3,0.1H25c-0.3,0-0.4-0.1-0.4-0.4C24.6,15.4,24.6,2,24.6,2z M50.6,15.6c-0.1,0.1-0.2,0.1-0.3,0.1
		c-0.1,0-0.2,0-0.3,0h-1.4c-0.1,0-0.2,0-0.3-0.1c-0.1,0-0.2-0.1-0.2-0.2c-0.1-0.1-0.1-0.2-0.1-0.2c0-0.1-0.1-0.2-0.1-0.3l-0.3-1.2
		c-0.1,0.2-0.2,0.4-0.4,0.7c-0.2,0.3-0.4,0.5-0.7,0.7c-0.3,0.2-0.6,0.4-1,0.6c-0.4,0.1-0.8,0.2-1.3,0.2c-0.7,0-1.4-0.1-2-0.4
		c-0.6-0.3-1.1-0.7-1.5-1.1c-0.4-0.5-0.7-1-1-1.7c-0.2-0.6-0.3-1.3-0.3-2.1V4.4c0-0.2,0.1-0.4,0.2-0.5c0.1-0.1,0.3-0.2,0.5-0.2h2.2
		c0.3,0,0.5,0,0.6,0.1C42.9,3.9,43,4.1,43,4.3v6.2c0,0.3,0.1,0.5,0.2,0.8c0.1,0.2,0.3,0.5,0.5,0.6c0.2,0.2,0.4,0.3,0.7,0.4
		c0.3,0.1,0.5,0.2,0.8,0.2c0.2,0,0.5-0.1,0.7-0.2c0.2-0.1,0.5-0.3,0.7-0.4c0.2-0.2,0.4-0.4,0.5-0.6c0.1-0.2,0.2-0.5,0.2-0.8V4.4
		c0-0.1,0-0.2,0.1-0.3c0-0.1,0.1-0.2,0.2-0.2c0.1-0.1,0.2-0.1,0.2-0.1c0.1,0,0.2,0,0.3,0h2.2c0.3,0,0.5,0.1,0.6,0.2
		c0.1,0.1,0.2,0.3,0.2,0.5v10.7c0,0.1,0,0.2-0.1,0.3C50.8,15.5,50.7,15.6,50.6,15.6C50.6,15.6,50.6,15.6,50.6,15.6z M61.7,14.3
		c-0.2,0.2-0.4,0.4-0.6,0.6c-0.2,0.2-0.4,0.4-0.7,0.6c-0.2,0.2-0.5,0.3-0.8,0.4C59.4,15.9,59,16,58.7,16c-0.9,0-1.7-0.2-2.4-0.5
		c-0.7-0.3-1.3-0.8-1.9-1.3c-0.5-0.6-0.9-1.2-1.2-2c-0.3-0.8-0.4-1.6-0.4-2.5c0-0.9,0.1-1.7,0.4-2.5c0.3-0.8,0.7-1.4,1.2-2
		c0.5-0.6,1.2-1,1.9-1.3c0.7-0.3,1.5-0.5,2.4-0.5c0.3,0,0.7,0.1,1,0.2C60,3.7,60.2,3.9,60.5,4c0.2,0.2,0.5,0.3,0.7,0.5
		c0.2,0.2,0.4,0.4,0.6,0.6V0.8c0-0.2,0.1-0.4,0.2-0.5c0.1-0.1,0.3-0.2,0.6-0.2h2.1c0.1,0,0.2,0,0.3,0.1c0.1,0,0.2,0.1,0.3,0.1
		c0.1,0.1,0.1,0.1,0.2,0.2c0,0.1,0.1,0.2,0.1,0.3V15c0,0.5-0.3,0.7-0.8,0.7h-1.9c-0.1,0-0.2,0-0.3,0c-0.1,0-0.1-0.1-0.2-0.1
		c-0.1-0.1-0.1-0.1-0.1-0.2c0-0.1-0.1-0.2-0.1-0.3L61.7,14.3L61.7,14.3z M56.2,9.7c0,0.4,0.1,0.8,0.2,1.2c0.1,0.4,0.3,0.7,0.6,0.9
		c0.2,0.3,0.5,0.5,0.9,0.6c0.3,0.2,0.7,0.2,1.1,0.2c0.4,0,0.8-0.1,1.1-0.2c0.3-0.1,0.7-0.3,0.9-0.6c0.3-0.3,0.5-0.6,0.6-0.9
		c0.2-0.3,0.3-0.7,0.3-1.1V9.7c0-0.4-0.1-0.8-0.2-1.2c-0.1-0.4-0.4-0.7-0.6-1c-0.3-0.3-0.6-0.5-1-0.7c-0.4-0.2-0.8-0.2-1.2-0.2
		c-0.4,0-0.8,0.1-1.1,0.2c-0.3,0.2-0.6,0.4-0.9,0.7c-0.2,0.3-0.4,0.6-0.6,1C56.3,8.9,56.2,9.3,56.2,9.7L56.2,9.7z M76.4,14.3
		c-0.2,0.2-0.4,0.4-0.6,0.6c-0.2,0.2-0.4,0.4-0.7,0.6c-0.2,0.2-0.5,0.3-0.8,0.4c-0.3,0.1-0.6,0.2-0.9,0.2c-0.9,0-1.7-0.2-2.4-0.5
		c-0.7-0.3-1.3-0.8-1.9-1.3c-0.5-0.6-0.9-1.2-1.2-2c-0.3-0.8-0.4-1.6-0.4-2.5c0-0.9,0.1-1.7,0.4-2.5c0.3-0.8,0.7-1.4,1.2-2
		c0.5-0.6,1.2-1,1.9-1.3c0.7-0.3,1.5-0.5,2.4-0.5c0.3,0,0.7,0.1,1,0.2c0.3,0.1,0.5,0.2,0.8,0.4c0.2,0.2,0.5,0.3,0.7,0.5
		C76,4.8,76.2,5,76.4,5.1V0.8c0-0.2,0.1-0.4,0.2-0.5c0.1-0.1,0.3-0.2,0.6-0.2h2.1c0.1,0,0.2,0,0.3,0.1c0.1,0,0.2,0.1,0.3,0.1
		C79.9,0.3,80,0.4,80,0.5c0,0.1,0.1,0.2,0.1,0.3V15c0,0.5-0.3,0.7-0.8,0.7h-1.9c-0.1,0-0.2,0-0.3,0c-0.1,0-0.1-0.1-0.2-0.1
		c-0.1-0.1-0.1-0.1-0.1-0.2c0-0.1-0.1-0.2-0.1-0.3L76.4,14.3L76.4,14.3z M70.9,9.7c0,0.4,0.1,0.8,0.2,1.2c0.1,0.4,0.3,0.7,0.6,0.9
		c0.2,0.3,0.5,0.5,0.9,0.6c0.3,0.2,0.7,0.2,1.1,0.2c0.4,0,0.8-0.1,1.1-0.2c0.3-0.1,0.7-0.3,0.9-0.6c0.3-0.3,0.5-0.6,0.6-0.9
		c0.2-0.3,0.3-0.7,0.3-1.1V9.7c0-0.4-0.1-0.8-0.2-1.2c-0.1-0.4-0.4-0.7-0.6-1c-0.3-0.3-0.6-0.5-1-0.7c-0.4-0.2-0.8-0.2-1.2-0.2
		c-0.4,0-0.8,0.1-1.1,0.2c-0.3,0.2-0.6,0.4-0.9,0.7c-0.2,0.3-0.4,0.6-0.6,1C71,8.9,70.9,9.3,70.9,9.7L70.9,9.7z M82.6,0.8
		c0-0.2,0.1-0.4,0.2-0.5c0.1-0.1,0.3-0.2,0.5-0.2h2.3c0.1,0,0.1,0,0.2,0.1c0.1,0,0.1,0.1,0.2,0.1c0.1,0.1,0.1,0.1,0.2,0.2
		c0,0.1,0.1,0.2,0.1,0.3V15c0,0.2-0.1,0.4-0.2,0.5c-0.1,0.1-0.3,0.2-0.5,0.2h-2.2c-0.2,0-0.4-0.1-0.5-0.2c-0.1-0.1-0.2-0.3-0.2-0.5
		V0.8z M98.6,14.3c-0.6,0.5-1.2,0.9-1.9,1.2C96,15.8,95.3,16,94.5,16c-0.9,0-1.7-0.2-2.5-0.5c-0.8-0.3-1.4-0.8-2-1.3
		c-0.6-0.6-1.1-1.2-1.4-2c-0.3-0.8-0.5-1.6-0.5-2.5c0-0.6,0.1-1.1,0.2-1.6c0.1-0.5,0.3-1,0.6-1.5c0.3-0.5,0.6-0.9,0.9-1.3
		c0.4-0.4,0.8-0.7,1.2-1c0.5-0.3,0.9-0.5,1.4-0.6c0.5-0.2,1.1-0.2,1.6-0.2c0.5,0,1,0.1,1.5,0.2s1,0.3,1.4,0.6
		c0.4,0.3,0.8,0.6,1.2,0.9c0.4,0.3,0.7,0.7,0.9,1.2c0.3,0.4,0.5,0.9,0.6,1.4c0.1,0.5,0.2,1,0.2,1.5c0,0.3,0,0.6,0,0.8
		c0,0.2-0.1,0.4-0.1,0.5c-0.1,0.1-0.2,0.2-0.4,0.3c-0.2,0-0.5,0.1-0.9,0.1h-6.9c0.1,0.4,0.2,0.7,0.4,1c0.2,0.3,0.4,0.5,0.7,0.7
		c0.3,0.2,0.5,0.3,0.8,0.3c0.3,0.1,0.5,0.1,0.8,0.1c0.2,0,0.5,0,0.7-0.1c0.2,0,0.5-0.1,0.7-0.2c0.2-0.1,0.4-0.2,0.6-0.3
		c0.2-0.1,0.3-0.2,0.5-0.3c0.1-0.1,0.2-0.1,0.3-0.2c0.1,0,0.2-0.1,0.2-0.1c0.1,0,0.2,0,0.3,0.1c0.1,0.1,0.2,0.2,0.3,0.2l1,1.1
		c0.1,0.1,0.1,0.2,0.1,0.2c0,0.1,0,0.1,0,0.2c0,0.1,0,0.2-0.1,0.3C98.8,14.2,98.7,14.2,98.6,14.3L98.6,14.3z M94.1,6.4
		c-0.2,0-0.5,0-0.7,0.1c-0.2,0.1-0.5,0.2-0.7,0.4c-0.2,0.2-0.4,0.4-0.5,0.6c-0.2,0.2-0.3,0.4-0.4,0.6h4.9c-0.1-0.2-0.3-0.5-0.4-0.7
		C96,7.2,95.8,7,95.6,6.9c-0.2-0.2-0.4-0.3-0.7-0.4C94.7,6.4,94.4,6.4,94.1,6.4z"/>
</g>
</svg>
